<?xml version="1.0" encoding="UTF-8"?>
<svg id="Layer_2" data-name="Layer 2" xmlns="http://www.w3.org/2000/svg" viewBox="0 0 306.86 354.36">
  <defs>
    <style>
      .cls-1 {
        fill: #231f20;
      }

      .cls-2 {
        fill: #fcaaac;
      }

      .cls-2, .cls-3 {
        stroke: #231f20;
        stroke-miterlimit: 10;
        stroke-width: 2px;
      }

      .cls-3 {
        fill: #f92126;
      }
    </style>
  </defs>
  <g id="Layer_1-2" data-name="Layer 1">
    <g id="ANGER">
      <path class="cls-3" d="m1.2,352.63l152.15-88.05c-7.76-13.53-27.07-42.98-64.33-64.44-37.26-21.46-72.41-23.39-88.01-23.32.06,58.6.13,117.21.19,175.81Z"/>
      <path class="cls-2" d="m91.86,12.88c-15.28-4.07-33.07-7.71-53.03-9.86C25.25,1.56,12.59,1,1.04,1c-.01,58.6-.03,117.21-.04,175.81,6.56.14,13.75.6,21.45,1.54,8.85,1.08,16.91,2.62,24.07,4.34,15.11-56.61,30.22-113.21,45.33-169.82Z"/>
      <path class="cls-2" d="m176.29,47.62c-29.54-16.97-58.41-27.82-84.43-34.74-15.11,56.61-30.22,113.21-45.33,169.82,13.59,3.58,23.89,8.08,28.28,10.1,6.29,2.89,11.31,5.67,14.21,7.34L176.29,47.62Z"/>
      <path class="cls-2" d="m89.01,200.14L176.29,47.62c29.9,17.17,54.05,36.9,73.28,56.13,0,0-124.39,124.1-124.39,124.1-9.51-9.5-21.43-19.23-36.16-27.72Z"/>
      <path class="cls-2" d="m125.18,227.85s124.39-124.1,124.39-124.1c28.78,28.79,46.51,56.47,55.92,72.78l-152.15,88.05c-4.7-8.18-13.61-22.19-28.17-36.73Z"/>
      <g>
        <path class="cls-1" d="m23.44,295.98l1.79-3.12,21.13,4.33-1.65,2.86-11.34-2.67c-2.28-.51-4.58-1.11-6.89-1.72l-.06.11c1.71,1.68,3.37,3.36,4.95,5.07l7.99,8.5-1.59,2.75-14.35-16.11Zm9,8.65l4.76-8.26,2.13,1.23-4.76,8.26-2.13-1.23Z"/>
        <path class="cls-1" d="m29.91,284.76l1.6-2.78,14,.12,4.81.27.06-.11c-1.89-.91-4.13-1.92-6.05-3.02l-8.44-4.86,1.48-2.57,17.74,10.22-1.6,2.78-14.01-.12-4.8-.27-.06.11c1.91.92,4.05,1.87,5.96,2.98l8.53,4.91-1.48,2.57-17.74-10.22Z"/>
        <path class="cls-1" d="m48.41,273.24c-5.76-3.32-7.18-8.88-4.47-13.59,1.43-2.49,3.51-3.52,5.23-3.96l.91,2.47c-1.41.38-2.75,1.06-3.74,2.77-1.94,3.36-.61,7.06,3.59,9.48,4.25,2.45,8.03,1.97,10.14-1.7.65-1.13.95-2.42.74-3.39l-4.23-2.43-2.04,3.55-2.23-1.28,3.45-5.99,7.64,4.4c.52,1.85.26,4.36-1.12,6.77-2.73,4.73-8.05,6.26-13.87,2.91Z"/>
        <path class="cls-1" d="m49.76,250.29l6.02-10.45,2.28,1.31-4.46,7.75,5.05,2.91,3.77-6.55,2.28,1.31-3.77,6.55,5.85,3.37,4.62-8.02,2.28,1.31-6.18,10.72-17.74-10.22Z"/>
        <path class="cls-1" d="m58.06,235.88l3.32-5.77c2.1-3.65,4.97-5.62,8.8-3.42,3.68,2.12,3.83,5.83,1.73,9.48l-1.77,3.07,7.22,4.16-1.56,2.7-17.74-10.22Zm11.48-.63c1.5-2.6,1.25-4.63-.91-5.87-2.19-1.26-3.77-.28-5.27,2.32l-1.58,2.74,6.18,3.56,1.58-2.74Zm1.33,1.03l-.36-2.9,12.62-.02-1.75,3.05-10.51-.12Z"/>
      </g>
      <g>
        <path class="cls-1" d="m24.13,113.79l.31-2.73,9.91-2.34c1.27-.29,2.57-.56,3.86-.85v-.11c-1.18-.57-2.39-1.09-3.56-1.65l-9.15-4.45.31-2.73,17.83,2.01-.24,2.11-9.82-1.11c-1.55-.17-3.68-.59-5.24-.88v.11s3.9,1.88,3.9,1.88l8.84,4.4-.17,1.5-9.61,2.33-4.23.95v.11c1.58.06,3.74.13,5.29.31l9.82,1.11-.23,2.06-17.83-2.01Z"/>
        <path class="cls-1" d="m26.77,90.36l.29-2.56,18.51-4.02-.27,2.4-10.31,1.98c-2.07.42-4.09.77-6.21,1.11v.11c1.99.79,3.88,1.58,5.8,2.44l9.6,4.27-.26,2.31-17.15-8.05Zm10.27,4.06l.93-8.21,1.81.2-.93,8.21-1.81-.2Z"/>
        <path class="cls-1" d="m28.01,79.36l.5-4.46c.62-5.48,4.14-8.06,9.8-7.42,5.67.64,8.65,3.95,8.04,9.34l-.52,4.56-17.83-2.01Zm16.46-2.49c.47-4.17-1.91-6.54-6.42-7.05-4.51-.51-7.23,1.29-7.7,5.46l-.23,2.02,14.11,1.59.23-2.02Z"/>
      </g>
      <g>
        <path class="cls-1" d="m80.64,135.52l.87-2.11,6.95,2.87,3.19-7.71-6.95-2.87.87-2.11,16.59,6.85-.87,2.11-7.8-3.22-3.19,7.71,7.8,3.22-.87,2.11-16.59-6.85Z"/>
        <path class="cls-1" d="m97.15,123.13l-9.74-4.02.87-2.11,9.8,4.05c3.99,1.65,5.93.48,6.83-1.69.91-2.2.37-4.45-3.62-6.1l-9.79-4.05.83-2.02,9.74,4.02c5.32,2.2,6.09,5.52,4.69,8.91-1.4,3.39-4.29,5.21-9.62,3.01Z"/>
        <path class="cls-1" d="m94.18,102.74l2.15-5.2c1.4-3.38,3.61-5.3,7.07-3.88,3.31,1.37,3.91,4.45,2.51,7.83l-1.27,3.08,7.01,2.9-.87,2.11-16.59-6.85Zm9.89-1.64c1.07-2.58.61-4.43-1.54-5.32-2.18-.9-3.54.2-4.61,2.78l-1.15,2.78,6.15,2.54,1.15-2.78Zm1.09.58l-.41-2.11,10.77-1.48-.99,2.39-9.38,1.19Z"/>
        <path class="cls-1" d="m103.18,86l-2.07,5.02-1.79-.74,5.02-12.15,1.79.74-2.07,5.02,14.8,6.11-.87,2.11-14.8-6.11Z"/>
      </g>
      <g>
        <path class="cls-1" d="m111.74,195.61l-3.3,4.31-1.54-1.17,7.99-10.43,1.54,1.17-3.3,4.31,12.71,9.74-1.39,1.81-12.71-9.74Z"/>
        <path class="cls-1" d="m116.85,185.76l1.39-1.81,5.97,4.57,5.07-6.63-5.97-4.57,1.39-1.81,14.25,10.91-1.39,1.81-6.7-5.13-5.07,6.63,6.7,5.13-1.39,1.81-14.25-10.91Z"/>
        <path class="cls-1" d="m127.68,171.61l3.42-4.46c2.22-2.9,4.86-4.19,7.83-1.92,2.85,2.18,2.62,5.31.4,8.22l-2.03,2.65,6.02,4.61-1.39,1.81-14.25-10.91Zm9.97.97c1.7-2.22,1.73-4.13-.11-5.54-1.87-1.43-3.47-.72-5.17,1.49l-1.83,2.39,5.29,4.05,1.83-2.39Zm.9.84l.15-2.14,10.79,1.36-1.57,2.06-9.36-1.28Z"/>
        <path class="cls-1" d="m137.14,159.25l6.29-8.21,1.54,1.17-4.9,6.4,4.46,3.42,4.13-5.4,1.54,1.18-4.13,5.4,5.18,3.97,5.07-6.62,1.53,1.18-6.45,8.43-14.25-10.91Z"/>
        <path class="cls-1" d="m148.15,144.88l1.57-2.05,17.94,6.09-1.47,1.92-9.86-3.61c-1.98-.71-3.9-1.45-5.89-2.25l-.07.09c1.31,1.71,2.52,3.35,3.72,5.09l6.04,8.61-1.41,1.85-10.56-15.73Zm6.71,8.77l5.02-6.56,1.45,1.11-5.02,6.56-1.45-1.11Z"/>
        <path class="cls-1" d="m157.84,135.4l-3.3,4.31-1.54-1.17,7.99-10.43,1.54,1.17-3.3,4.31,12.71,9.74-1.39,1.81-12.71-9.74Z"/>
        <path class="cls-1" d="m162.95,125.56l6.29-8.21,1.54,1.17-4.9,6.4,4.46,3.42,4.13-5.4,1.54,1.18-4.13,5.4,5.18,3.97,5.07-6.62,1.53,1.18-6.45,8.43-14.25-10.91Z"/>
        <path class="cls-1" d="m171.71,114.12l1.43-1.87,12.91,1.7,4.13.72.07-.09c-1.51-1.01-3.22-2.1-4.71-3.24l-7.38-5.65,1.32-1.72,14.25,10.91-1.43,1.87-12.92-1.71-4.12-.71-.07.09c1.51,1.01,3.14,2.04,4.63,3.18l7.46,5.71-1.32,1.72-14.25-10.91Z"/>
        <path class="cls-1" d="m182.46,100.07l6.29-8.21,1.54,1.17-4.9,6.4,4.46,3.42,4.13-5.4,1.54,1.18-4.13,5.4,5.18,3.97,5.07-6.62,1.53,1.18-6.45,8.43-14.25-10.91Z"/>
        <path class="cls-1" d="m191.22,88.63l2.73-3.56c3.35-4.38,7.7-4.78,12.23-1.31,4.53,3.47,5.38,7.84,2.08,12.15l-2.79,3.64-14.25-10.91Zm15.39,6.34c2.55-3.33,1.74-6.59-1.87-9.35-3.6-2.76-6.86-2.62-9.41.71l-1.24,1.62,11.28,8.63,1.24-1.62Z"/>
      </g>
      <g>
        <path class="cls-1" d="m168.71,213.62l3.58-2.71c4.4-3.32,8.7-2.55,12.13,2,3.44,4.55,3.09,9-1.24,12.26l-3.66,2.77-10.81-14.32Zm13.13,10.23c3.35-2.53,3.43-5.89.7-9.51-2.73-3.62-5.91-4.35-9.26-1.83l-1.62,1.23,8.56,11.33,1.62-1.23Z"/>
        <path class="cls-1" d="m182.13,203.49l1.82-1.38,10.81,14.32-1.82,1.38-10.81-14.32Z"/>
        <path class="cls-1" d="m196.24,212.4l.15-2.07c1.84.29,3.8-.09,5.29-1.21,1.88-1.42,2.29-3.2,1.24-4.59-1.1-1.46-2.49-1.15-4.29-.71l-2.74.65c-1.76.44-4.09.61-5.68-1.5-1.65-2.19-.96-5.24,1.64-7.21,1.7-1.28,3.77-1.69,5.56-1.41l-.08,1.9c-1.5-.17-2.94.11-4.26,1.11-1.61,1.21-2.06,2.83-1.09,4.11,1.04,1.38,2.68.95,4.16.58l2.71-.66c2.2-.54,4.23-.53,5.84,1.6,1.71,2.26,1.2,5.48-1.81,7.76-2.01,1.52-4.38,2.02-6.62,1.66Z"/>
        <path class="cls-1" d="m203.23,189.98l-4.33,3.27-1.17-1.54,10.49-7.92,1.17,1.54-4.33,3.27,9.65,12.78-1.82,1.38-9.65-12.78Z"/>
        <path class="cls-1" d="m212.86,180.29l2.06-1.55,15.66,10.66-1.93,1.46-8.54-6.11c-1.72-1.21-3.37-2.44-5.08-3.74l-.09.07c.81,2,1.53,3.91,2.23,5.9l3.52,9.91-1.85,1.4-5.97-17.98Zm4.12,10.24l6.59-4.98,1.1,1.45-6.59,4.98-1.1-1.45Z"/>
        <path class="cls-1" d="m221.69,173.61l1.88-1.42,11.98,5.09,3.79,1.8.09-.07c-1.18-1.38-2.54-2.88-3.67-4.38l-5.6-7.41,1.73-1.31,10.82,14.32-1.88,1.42-11.99-5.1-3.78-1.79-.09.07c1.19,1.38,2.48,2.8,3.61,4.3l5.66,7.5-1.73,1.31-10.81-14.32Z"/>
        <path class="cls-1" d="m239.96,162.24l-4.33,3.27-1.17-1.54,10.49-7.92,1.17,1.54-4.33,3.27,9.65,12.78-1.82,1.38-9.65-12.78Z"/>
      </g>
    </g>
  </g>
</svg>