<?xml version="1.0" encoding="UTF-8"?>
<svg id="Layer_2" data-name="Layer 2" viewBox="0 0 307.18 354.36" xmlns="http://www.w3.org/2000/svg">
 <defs>
  <style>.cls-1 {
        fill: #231f20;
      }

      .cls-2 {
        fill: #40e844;
      }

      .cls-2, .cls-3 {
        stroke: #231f20;
        stroke-miterlimit: 10;
        stroke-width: 2px;
      }

      .cls-3 {
        fill: #acfabd;
      }</style>
 </defs>
 <g id="Layer_1-2" data-name="Layer 1">
  <g id="DISGUST">
   <path class="cls-2" d="m306.17 1.73-152.4 87.6c7.73 13.56 26.94 43.06 64.14 64.63s72.34 23.61 87.94 23.58c0.11-58.6 0.21-117.21 0.32-175.81z"/>
   <path class="cls-3" d="m214.51,341.21c15.27,4.11,33.05,7.81,53,10.01,13.57,1.5,26.23,2.1,37.78,2.14.18-58.6.37-117.21.55-175.81-6.56-.16-13.75-.64-21.45-1.61-8.85-1.11-16.9-2.67-24.06-4.41-15.28,56.56-30.55,113.12-45.83,169.68Z"/>
   <path class="cls-3" d="m130.19 306.23c29.49 17.05 58.33 27.99 84.33 34.99 15.28-56.56 30.55-113.12 45.83-169.68-13.57-3.62-23.87-8.15-28.25-10.18-6.28-2.91-11.29-5.7-14.19-7.38l-87.72 152.26z"/>
   <path class="cls-3" d="m217.91 153.97-87.72 152.26c-29.85-17.26-53.94-37.06-73.11-56.35l124.75-123.74c9.48 9.53 21.38 19.3 36.08 27.82z"/>
   <path class="cls-3" d="m181.83,126.14s-124.75,123.74-124.75,123.74C28.38,221,10.73,193.27,1.36,176.94l152.4-87.6c4.67,8.2,13.55,22.23,28.06,36.81Z"/>
   <path class="cls-1" d="m218.28,131.34l2.65-4.58c3.15-5.44,7.97-6.73,13.72-3.4,5.74,3.33,7.15,8.24,4.07,13.54l-2.73,4.71-17.71-10.27Zm18.06,4.61c2.23-3.85,1.12-7.25-3.3-9.81s-7.78-1.77-10.02,2.09l-.98,1.69,13.32,7.72.98-1.69Z"/>
   <path class="cls-1" d="m228 114.58 1.56-2.7 17.71 10.27-1.56 2.7-17.71-10.27z"/>
   <path class="cls-1" d="m246.98,117.4l-.93-2.66c2-.54,3.85-1.79,4.86-3.53,1.25-2.16.94-3.99-.61-4.89-1.63-.95-2.86-.04-4.51,1.19l-2.53,1.85c-1.7,1.28-4.11,2.41-6.71.9-2.76-1.6-3.44-5.24-1.51-8.57,1.21-2.08,3.22-3.51,5.32-4.05l.91,2.4c-1.63.53-2.96,1.43-3.87,3.01-1.06,1.83-.87,3.56.57,4.39,1.55.9,2.96-.21,4.39-1.3l2.47-1.85c2.08-1.57,4.25-2.36,6.85-.86,2.83,1.64,3.79,5.33,1.56,9.18-1.41,2.44-3.69,4.11-6.26,4.77Z"/>
   <path class="cls-1" d="m249.05,98.77c-5.75-3.34-7.16-8.9-4.43-13.6,1.44-2.48,3.52-3.51,5.25-3.95l.9,2.47c-1.41.37-2.75,1.05-3.75,2.76-1.95,3.36-.63,7.06,3.56,9.49,4.25,2.46,8.02,1.99,10.15-1.67.65-1.13.96-2.42.75-3.39l-4.22-2.45-2.06,3.54-2.22-1.29,3.47-5.98,7.63,4.42c.52,1.85.25,4.36-1.14,6.76-2.74,4.72-8.07,6.24-13.88,2.87Z"/>
   <path class="cls-1" d="m260.6 81.8-10.17-5.9 1.56-2.7 10.32 5.99c4.06 2.35 6.3 1.49 7.59-0.74 1.31-2.26 0.98-4.69-3.08-7.04l-10.32-5.98 1.5-2.59 10.17 5.9c5.75 3.33 6.32 7.22 4.08 11.08s-5.91 5.32-11.66 1.99z"/>
   <path class="cls-1" d="m275.21,68.71l-.93-2.66c2-.54,3.85-1.79,4.86-3.53,1.25-2.16.94-3.99-.61-4.89-1.63-.95-2.86-.04-4.51,1.19l-2.53,1.85c-1.7,1.28-4.11,2.41-6.71.9-2.76-1.6-3.44-5.24-1.51-8.57,1.21-2.08,3.22-3.51,5.32-4.05l.91,2.4c-1.63.53-2.96,1.43-3.87,3.01-1.06,1.83-.87,3.56.57,4.39,1.55.9,2.96-.21,4.39-1.3l2.47-1.85c2.08-1.57,4.25-2.36,6.85-.86,2.83,1.64,3.79,5.33,1.56,9.18-1.41,2.44-3.69,4.11-6.26,4.77Z"/>
   <path class="cls-1" d="m273.03 42.17-3.04 5.24-2.27-1.32 7.64-13.17 2.27 1.32-3.04 5.24 15.44 8.95-1.56 2.7-15.44-8.95z"/>
   <path class="cls-1" d="m256.69,322.7l.3-2.56,18.53-3.96-.28,2.4-10.32,1.96c-2.07.41-4.09.75-6.21,1.09v.11c1.99.79,3.87,1.59,5.79,2.46l9.59,4.3-.27,2.31-17.13-8.1Zm10.25,4.09l.95-8.21,1.81.21-.95,8.21-1.81-.21Z"/>
   <path class="cls-1" d="m257.65,314.4l.28-2.4,9.97-1.76c2.17-.38,3.92-.62,6.09-1.03v-.11c-2-.9-3.65-1.54-5.68-2.4l-9.31-3.97.27-2.31,17.17,7.73-.3,2.63-18.49,3.63Z"/>
   <path class="cls-1" d="m268.25 300.31c-5.71-0.66-8.81-4.21-8.29-8.68 0.52-4.48 4.36-7.22 10.06-6.56 5.71 0.66 8.94 4.22 8.42 8.7s-4.48 7.2-10.19 6.54zm1.49-12.9c-4.44-0.51-7.42 1.26-7.79 4.44s2.13 5.59 6.57 6.11c4.44 0.51 7.55-1.25 7.92-4.43s-2.26-5.61-6.7-6.12z"/>
   <path class="cls-1" d="m261.61,280.21l.26-2.27,17.83,2.07-.26,2.27-17.83-2.07Z"/>
   <path class="cls-1" d="m262.44 273.07 0.52-4.46c0.63-5.48 4.16-8.05 9.82-7.39s8.64 3.98 8.01 9.36l-0.53 4.56-17.83-2.07zm16.46-2.44c0.48-4.17-1.89-6.55-6.39-7.07-4.51-0.52-7.23 1.27-7.71 5.44l-0.23 2.02 14.11 1.63 0.23-2.02z"/>
   <path class="cls-1" d="m264.77,252.97l.3-2.56,18.53-3.96-.28,2.4-10.32,1.96c-2.07.41-4.09.75-6.21,1.09v.11c1.99.79,3.87,1.59,5.79,2.46l9.59,4.3-.27,2.31-17.13-8.1Zm10.25,4.09l.95-8.21,1.81.21-.95,8.21-1.81-.21Z"/>
   <path class="cls-1" d="m266.04,241.97l.27-2.34,11.95-5.15,3.91-1.5v-.11c-1.8-.09-3.83-.15-5.69-.37l-9.23-1.07.25-2.15,17.83,2.07-.27,2.34-11.96,5.15-3.9,1.5v.11c1.8.09,3.73.14,5.59.36l9.33,1.08-.25,2.15-17.83-2.07Z"/>
   <path class="cls-1" d="m276.89,226.46c-5.75-.67-8.86-4.46-8.34-8.98.25-2.16,1.5-3.74,2.77-4.65l1.33,1.41c-1.11.82-1.93,1.92-2.1,3.43-.39,3.37,2.11,5.93,6.55,6.44,4.48.52,7.54-1.29,7.93-4.67.2-1.7-.39-3.08-1.52-4.36l1.57-1.08c1.47,1.6,2.21,3.45,1.94,5.77-.51,4.44-4.33,7.37-10.12,6.7Z"/>
   <path class="cls-1" d="m269.88,208.88l1.19-10.28,1.92.22-.93,8.01,5.58.65.78-6.75,1.92.22-.78,6.75,6.48.75.96-8.28,1.92.22-1.22,10.55-17.83-2.07Z"/>
   <path class="cls-1" d="m174.25,304.23l1.48-3.55c1.82-4.37,5.33-5.65,9.84-3.77s6.18,5.32,4.39,9.61l-1.51,3.63-14.2-5.91Zm14.14,1.88c1.38-3.32,0-5.84-3.6-7.34-3.59-1.5-6.26-.66-7.64,2.66l-.67,1.61,11.24,4.68.67-1.61Z"/>
   <path class="cls-1" d="m179.79,290.93l.75-1.81,14.2,5.91-.75,1.81-14.2-5.91Z"/>
   <path class="cls-1" d="m194.09,291.41l-.79-1.6c1.49-.58,2.78-1.71,3.39-3.19.78-1.86.31-3.36-1.07-3.93-1.45-.6-2.34.23-3.48,1.33l-1.75,1.67c-1.12,1.09-2.76,2.22-4.85,1.35-2.17-.9-2.98-3.46-1.91-6.04.7-1.68,2.06-2.88,3.5-3.45l.76,1.44c-1.18.53-2.13,1.36-2.67,2.67-.66,1.59-.3,2.98.97,3.51,1.37.57,2.4-.46,3.33-1.37l1.72-1.66c1.39-1.35,2.9-2.22,5.02-1.34,2.24.93,3.26,3.53,2.02,6.52-.83,1.99-2.36,3.39-4.18,4.09Z"/>
   <path class="cls-1" d="m188.19,270.76l.85-2.04,16.2,1.11-.8,1.91-8.96-.83c-1.8-.15-3.55-.34-5.38-.57l-.04.09c1.46,1.12,2.83,2.23,4.2,3.4l6.89,5.81-.77,1.84-12.2-10.72Zm7.48,5.79l2.72-6.54,1.44.6-2.72,6.54-1.44-.6Z"/>
   <path class="cls-1" d="m191.84,262l1.69-4.06c1.32-3.18,3.29-4.88,6.4-3.59,2.99,1.25,3.5,3.96,2.2,7.07l-.97,2.33,5.63,2.35-.75,1.81-14.2-5.91Zm8.73-.96c1.03-2.48.63-4.04-1.39-4.88-2.05-.85-3.24.13-4.28,2.62l-.84,2.02,5.64,2.35.88-2.11Z"/>
   <path class="cls-1" d="m196.94,249.75l1.69-4.06c1.33-3.18,3.29-4.88,6.4-3.59,2.99,1.25,3.5,3.96,2.2,7.07l-.97,2.33,5.63,2.35-.75,1.81-14.2-5.91Zm8.73-.96c1.03-2.48.63-4.04-1.39-4.88-2.05-.85-3.24.13-4.28,2.62l-.84,2.02,5.64,2.35.88-2.11Z"/>
   <path class="cls-1" d="m202.04,237.51l1.85-4.45c1.2-2.89,3.11-4.54,6.07-3.3,2.84,1.18,3.34,3.83,2.13,6.72l-1.1,2.64,6,2.5-.75,1.81-14.2-5.91Zm8.48-1.38c.92-2.21.53-3.8-1.31-4.57-1.87-.78-3.04.16-3.96,2.37l-.99,2.38,5.27,2.19.99-2.38Zm.93.5l-.34-1.8,9.24-1.24-.85,2.05-8.04.99Z"/>
   <path class="cls-1" d="m213.87,228.95c-4.55-1.89-6.27-5.55-4.78-9.11,1.49-3.57,5.3-4.92,9.84-3.02,4.55,1.89,6.37,5.59,4.88,9.16-1.48,3.57-5.39,4.88-9.94,2.98Zm4.28-10.27c-3.54-1.47-6.41-.71-7.47,1.82-1.06,2.54.43,5.11,3.97,6.59,3.54,1.47,6.52.76,7.57-1.78,1.06-2.54-.54-5.15-4.07-6.63Z"/>
   <path class="cls-1" d="m212.25,212.98l.8-1.91,8.63.91c1.88.2,3.38.42,5.26.59l.04-.09c-1.45-1.22-2.65-2.13-4.12-3.32l-6.73-5.47.77-1.84,12.32,10.42-.87,2.09-16.09-1.38Z"/>
   <path class="cls-1" d="m218.79,197.28l.85-2.04,16.2,1.11-.8,1.91-8.96-.83c-1.8-.15-3.55-.34-5.38-.57l-.04.09c1.46,1.12,2.83,2.23,4.2,3.4l6.89,5.81-.77,1.84-12.2-10.72Zm7.48,5.79l2.72-6.54,1.44.6-2.72,6.54-1.44-.6Z"/>
   <path class="cls-1" d="m222.44,188.52l.75-1.81,12.67,5.28,2.58-6.2,1.53.64-3.33,8-14.2-5.91Z"/>
   <path class="cls-1" d="m119.79,231.1l1.57-2.04,17.92,6.14-1.48,1.92-9.85-3.64c-1.98-.71-3.89-1.46-5.89-2.27l-.07.09c1.31,1.71,2.51,3.36,3.71,5.1l6.01,8.62-1.42,1.84-10.51-15.76Zm6.69,8.79l5.04-6.55,1.44,1.11-5.04,6.55-1.44-1.11Z"/>
   <path class="cls-1" d="m125.5,223.69l1.44-1.87,8.89,4.47c1.74.9,3.49,1.8,5.22,2.7l.07-.09c-1.28-1.49-2.56-3.02-3.81-4.53l-6.22-7.93,1.26-1.64,9.26,3.99c1.77.82,3.57,1.66,5.37,2.5l.07-.09c-1.32-1.46-2.66-2.9-3.96-4.34l-6.59-7.45,1.34-1.75,11.95,13.89-1.68,2.18-10.2-4.43c-1.3-.61-2.51-1.18-3.77-1.81l-.07.09c.93,1.06,1.77,2.11,2.69,3.21l6.92,8.69-1.65,2.14-16.54-7.94Z"/>
   <path class="cls-1" d="m139.74 205.21 6.32-8.2 1.53 1.18-4.92 6.39 4.79 3.69 4.17-5.42 1.53 1.18-4.17 5.42 6.36 4.9-1.39 1.81-14.22-10.95z"/>
   <path class="cls-1" d="m156.28,201l-8.35-6.43,1.39-1.81,8.4,6.47c3.42,2.63,5.6,2.02,7.03.16,1.45-1.88,1.52-4.2-1.89-6.83l-8.4-6.47,1.34-1.73,8.35,6.43c4.56,3.52,4.43,6.93,2.2,9.83-2.24,2.9-5.5,3.9-10.07.39Z"/>
   <path class="cls-1" d="m158.74 180.54 1.39-1.81 12.69 9.77 4.78-6.21 1.53 1.18-6.17 8.01-14.22-10.95z"/>
   <path class="cls-1" d="m34.75 199.78 3.08-2.31c3.78-2.84 7.46-2.16 10.39 1.75s2.62 7.72-1.09 10.51l-3.15 2.36-9.23-12.3zm11.23 8.79c2.88-2.16 2.96-5.04 0.62-8.15-2.33-3.11-5.05-3.75-7.93-1.59l-1.4 1.05 7.31 9.74 1.4-1.05z"/>
   <path class="cls-1" d="m46.28 191.13 1.57-1.17 9.23 12.3-1.57 1.17-9.23-12.3z"/>
   <path class="cls-1" d="m58.35,198.8l.13-1.78c1.58.25,3.26-.06,4.54-1.02,1.61-1.21,1.97-2.74,1.07-3.93-.94-1.26-2.14-.99-3.68-.62l-2.35.55c-1.51.37-3.51.51-4.87-1.3-1.41-1.88-.81-4.5,1.42-6.17,1.46-1.09,3.23-1.44,4.77-1.19l-.08,1.63c-1.29-.15-2.52.09-3.66.94-1.38,1.04-1.77,2.42-.95,3.52.89,1.19,2.3.82,3.56.51l2.32-.56c1.88-.46,3.63-.44,5,1.39,1.46,1.94,1.02,4.7-1.57,6.64-1.73,1.3-3.76,1.72-5.67,1.4Z"/>
   <path class="cls-1" d="m63.75,178.02l1.77-1.33,13.4,9.18-1.66,1.24-7.3-5.26c-1.47-1.04-2.88-2.1-4.34-3.22l-.08.06c.69,1.71,1.3,3.35,1.89,5.06l2.99,8.5-1.59,1.2-5.07-15.43Zm3.51,8.79l5.66-4.25.94,1.25-5.66,4.25-.94-1.25Z"/>
   <path class="cls-1" d="m71.34,172.32l3.51-2.64c2.76-2.07,5.31-2.54,7.34.16,1.94,2.59,1,5.19-1.69,7.21l-2.02,1.52,3.66,4.88-1.57,1.17-9.23-12.3Zm8.01,3.61c2.15-1.61,2.59-3.16,1.28-4.92-1.33-1.77-2.86-1.53-5.02.09l-1.75,1.31,3.67,4.88,1.83-1.37Z"/>
   <path class="cls-1" d="m81.95,164.36l3.51-2.64c2.76-2.07,5.31-2.54,7.34.16,1.94,2.59,1,5.19-1.69,7.21l-2.02,1.52,3.66,4.88-1.57,1.17-9.23-12.3Zm8.01,3.61c2.15-1.62,2.59-3.17,1.28-4.92-1.33-1.77-2.86-1.53-5.02.09l-1.75,1.31,3.67,4.88,1.83-1.37Z"/>
   <path class="cls-1" d="m96.43 163.04c-2.96-3.94-2.58-7.96 0.51-10.28s7.06-1.55 10.01 2.39c2.96 3.94 2.65 8.05-0.44 10.37s-7.12 1.47-10.08-2.47zm8.9-6.68c-2.3-3.06-5.16-3.87-7.36-2.22s-2.22 4.62 0.08 7.69 5.23 3.96 7.43 2.31 2.16-4.71-0.14-7.78z"/>
   <path class="cls-1" d="m105.01 147.05 1.57-1.17 9.23 12.3-1.57 1.17-9.23-12.3z"/>
   <path class="cls-1" d="m109.94,143.35l1.62-1.21,10.26,4.39,3.24,1.55.08-.06c-1.01-1.18-2.17-2.48-3.14-3.76l-4.78-6.37,1.49-1.12,9.23,12.3-1.62,1.21-10.26-4.4-3.24-1.54-.08.06c1.01,1.19,2.12,2.41,3.08,3.69l4.83,6.44-1.49,1.12-9.23-12.3Z"/>
   <path class="cls-1" d="m125.62 133.65-3.72 2.79-1-1.33 9.01-6.76 1 1.33-3.72 2.79 8.24 10.98-1.57 1.17-8.24-10.98z"/>
   <path class="cls-1" d="m132.11,126.71l7.09-5.32,1,1.33-5.53,4.15,2.89,3.85,4.66-3.5.99,1.33-4.66,3.5,3.36,4.47,5.71-4.29.99,1.33-7.28,5.46-9.23-12.3Z"/>
   <path class="cls-1" d="m141.99 119.29 3.08-2.31c3.78-2.84 7.46-2.16 10.39 1.75s2.62 7.72-1.09 10.51l-3.15 2.36-9.23-12.3zm11.23 8.8c2.88-2.16 2.96-5.04 0.62-8.15-2.33-3.11-5.05-3.75-7.93-1.59l-1.4 1.05 7.31 9.74 1.4-1.05z"/>
  </g>
 </g>
</svg>
