<?xml version="1.0" encoding="UTF-8"?>
<svg id="Layer_2" data-name="Layer 2" xmlns="http://www.w3.org/2000/svg" viewBox="0 0 307.11 354.31">
  <defs>
    <style>
      .cls-1 {
        fill: #231f20;
      }

      .cls-2 {
        fill: #9034e6;
      }

      .cls-2, .cls-3 {
        stroke: #231f20;
        stroke-miterlimit: 10;
        stroke-width: 2px;
      }

      .cls-3 {
        fill: #e0b9fa;
      }
    </style>
  </defs>
  <g id="Layer_1-2" data-name="Layer 1">
    <g id="FEAR">
      <path class="cls-2" d="m305.46,352.58l.32-175.79c-15.6-.09-50.76,1.81-88.04,23.24-37.28,21.43-56.61,50.85-64.39,64.38,50.7,29.39,101.4,58.78,152.11,88.17Z"/>
      <path class="cls-3" d="m57.27,103.48c-11.19,11.17-23.28,24.72-35.17,40.9-8.09,11-14.94,21.67-20.74,31.65,50.66,29.46,101.33,58.92,151.99,88.38,3.42-5.6,7.43-11.59,12.11-17.77,5.38-7.11,10.76-13.3,15.85-18.63-41.35-41.51-82.7-83.02-124.04-124.52Z"/>
      <path class="cls-3" d="m129.73,47.93c-29.51,17.02-53.4,36.52-72.46,55.54,41.35,41.51,82.7,83.02,124.04,124.52,9.93-9.94,18.99-16.59,22.94-19.38,5.66-3.99,10.58-6.93,13.48-8.6L129.73,47.93Z"/>
      <path class="cls-3" d="m217.74,200.03L129.73,47.93c29.87-17.22,59.06-28.19,85.35-35.15,0,0,44.79,169.9,44.79,169.9-13,3.45-27.4,8.87-42.13,17.34Z"/>
      <path class="cls-3" d="m259.88,182.69S215.08,12.78,215.08,12.78C254.44,2.37,287.28.95,306.11,1l-.32,175.79c-9.44-.05-26.02.62-45.91,5.9Z"/>
      <g>
        <path class="cls-1" d="m253.57,232.2l6.03,10.48-2.28,1.31-4.47-7.78-5.51,3.17,3.8,6.61-2.28,1.31-3.8-6.61-7.68,4.41-1.55-2.7,17.75-10.2Z"/>
        <path class="cls-1" d="m261.39,245.8l6.01,10.46-2.28,1.31-4.46-7.75-5.06,2.91,3.77,6.55-2.28,1.31-3.77-6.55-5.85,3.37,4.61,8.02-2.28,1.31-6.17-10.73,17.75-10.2Z"/>
        <path class="cls-1" d="m271.72,263.78l1.79,3.12-14.36,16.1-1.64-2.86,8.01-8.46c1.59-1.71,3.26-3.4,4.94-5.09l-.06-.11c-2.31.64-4.6,1.23-6.87,1.74l-11.36,2.64-1.58-2.75,21.14-4.31Zm-12,3.43l4.75,8.27-2.14,1.23-4.75-8.27,2.14-1.23Z"/>
        <path class="cls-1" d="m278.18,275.01l3.32,5.77c2.1,3.65,2.36,7.12-1.47,9.32-3.68,2.12-6.96.38-9.06-3.27l-1.76-3.07-7.22,4.15-1.55-2.7,17.75-10.2Zm-6.78,10.89l2.69,1.15-6.32,10.93-1.75-3.05,5.39-9.03Zm1.56-.64c1.49,2.6,3.37,3.41,5.53,2.17,2.19-1.26,2.14-3.12.65-5.72l-1.58-2.74-6.18,3.55,1.58,2.74Z"/>
      </g>
      <g>
        <path class="cls-1" d="m55.66,151.81l1.83,1.36-10.7,14.41-1.83-1.36,10.7-14.41Z"/>
        <path class="cls-1" d="m61.44,156.1l1.89,1.41-1.51,12.93-.66,4.14.09.07c.99-1.52,2.05-3.25,3.17-4.76l5.54-7.46,1.74,1.29-10.7,14.41-1.89-1.41,1.52-12.94.66-4.13-.09-.06c-.99,1.53-1.99,3.17-3.11,4.67l-5.6,7.54-1.74-1.29,10.7-14.41Z"/>
        <path class="cls-1" d="m65.28,178.41l2.03-.44c.24,1.85,1.15,3.63,2.65,4.74,1.89,1.4,3.71,1.3,4.75-.1,1.09-1.47.4-2.72-.52-4.32l-1.39-2.45c-.92-1.57-1.74-3.76-.16-5.88,1.63-2.2,4.76-2.4,7.38-.45,1.71,1.27,2.68,3.14,2.92,4.94l-1.85.46c-.26-1.49-.94-2.79-2.27-3.78-1.62-1.2-3.29-1.18-4.25.11-1.03,1.39-.16,2.84.61,4.16l1.39,2.41c1.13,1.95,1.7,3.91.11,6.06-1.69,2.28-4.92,2.7-7.95.45-2.02-1.5-3.17-3.63-3.45-5.88Z"/>
        <path class="cls-1" d="m87.36,175.36l8.3,6.17-1.15,1.55-6.47-4.81-3.35,4.51,5.46,4.05-1.15,1.55-5.46-4.05-3.89,5.24,6.69,4.97-1.15,1.55-8.52-6.33,10.7-14.41Z"/>
        <path class="cls-1" d="m92.73,190.55c3.45-4.65,8.29-5.45,11.95-2.73,1.75,1.3,2.49,3.17,2.64,4.72l-1.89.45c-.16-1.37-.7-2.63-1.92-3.53-2.72-2.02-6.19-1.14-8.85,2.45-2.69,3.62-2.65,7.17.08,9.2,1.38,1.02,2.86,1.2,4.54.86l.15,1.9c-2.12.48-4.09.19-5.96-1.2-3.59-2.67-4.22-7.44-.74-12.12Z"/>
        <path class="cls-1" d="m104.81,201.45l6.28-8.46,1.83,1.36-6.32,8.51c-2.57,3.46-1.92,5.64-.04,7.03,1.91,1.42,4.22,1.45,6.8-2.01l6.32-8.51,1.76,1.31-6.28,8.46c-3.43,4.62-6.85,4.55-9.79,2.37-2.94-2.18-4-5.44-.56-10.06Z"/>
        <path class="cls-1" d="m125.31,203.55l4.51,3.35c2.93,2.18,4.26,4.8,2.03,7.8-2.14,2.88-5.27,2.7-8.21.52l-2.68-1.99-4.52,6.09-1.83-1.36,10.7-14.41Zm-.82,9.99c2.24,1.67,4.15,1.67,5.54-.19,1.41-1.89.67-3.48-1.57-5.15l-2.42-1.79-3.97,5.34,2.42,1.79Zm-.83.91l2.14.12-1.21,10.81-2.08-1.54,1.14-9.38Z"/>
        <path class="cls-1" d="m137.8,212.83l8.3,6.17-1.15,1.55-6.47-4.81-3.35,4.51,5.46,4.05-1.15,1.55-5.46-4.05-3.89,5.24,6.69,4.97-1.15,1.55-8.52-6.33,10.7-14.41Z"/>
      </g>
      <g>
        <path class="cls-1" d="m117.21,93.05l3.41,4.47c2.22,2.9,2.77,5.79-.2,8.06-2.85,2.18-5.81,1.14-8.03-1.76l-2.03-2.65-6.03,4.61-1.39-1.81,14.26-10.9Zm-4.59,10.02l2.03.7-4.14,10.05-1.57-2.06,3.68-8.7Zm1.05-.65c1.7,2.22,3.53,2.75,5.38,1.34,1.88-1.43,1.61-3.16-.09-5.38l-1.83-2.39-5.29,4.04,1.83,2.39Z"/>
        <path class="cls-1" d="m126.66,105.41l6.28,8.22-1.54,1.17-4.9-6.4-4.47,3.42,4.13,5.4-1.54,1.17-4.13-5.4-5.18,3.96,5.06,6.62-1.54,1.17-6.45-8.44,14.26-10.9Z"/>
        <path class="cls-1" d="m122.2,124.96l1.9.58c-.64,1.51-.49,2.67.29,3.69,1.16,1.52,2.6,1.62,4.77-.04l9.9-7.56,1.39,1.81-10.06,7.69c-2.47,1.89-5.33,2.27-7.46-.52-1.38-1.81-1.58-3.7-.72-5.66Z"/>
        <path class="cls-1" d="m143.38,127.29l6.28,8.22-1.54,1.17-4.9-6.4-4.47,3.42,4.13,5.4-1.54,1.17-4.13-5.4-5.18,3.96,5.06,6.62-1.54,1.17-6.45-8.44,14.26-10.9Z"/>
        <path class="cls-1" d="m144.36,143.37c4.6-3.52,9.47-2.95,12.24.67,1.32,1.73,1.52,3.73,1.24,5.27l-1.94-.09c.23-1.36.05-2.72-.87-3.92-2.06-2.69-5.64-2.8-9.19-.08-3.58,2.74-4.52,6.17-2.46,8.87,1.04,1.36,2.42,1.94,4.13,2.08l-.38,1.86c-2.17-.13-3.99-.95-5.4-2.8-2.71-3.55-2-8.31,2.63-11.85Z"/>
        <path class="cls-1" d="m162.05,154.9l-3.3-4.31,1.54-1.17,7.98,10.44-1.54,1.17-3.3-4.31-12.72,9.73-1.39-1.82,12.72-9.73Z"/>
        <path class="cls-1" d="m170.22,162.4l6.28,8.22-1.54,1.17-4.9-6.4-4.47,3.42,4.13,5.4-1.54,1.17-4.13-5.4-5.18,3.96,5.06,6.62-1.54,1.17-6.45-8.44,14.26-10.9Z"/>
        <path class="cls-1" d="m178.97,173.85l2.73,3.57c3.35,4.38,2.6,8.68-1.93,12.14-4.53,3.46-8.98,3.14-12.27-1.16l-2.79-3.65,14.26-10.9Zm-10.15,13.19c2.55,3.33,5.91,3.4,9.51.64s4.32-5.94,1.77-9.27l-1.24-1.62-11.28,8.62,1.24,1.62Z"/>
      </g>
      <g>
        <path class="cls-1" d="m195.61,65.86l.98,2.38-14.28,12.45-.92-2.24,8.07-6.71c1.61-1.36,3.21-2.64,4.91-3.96l-.04-.1c-2.14.28-4.17.49-6.27.66l-10.47.89-.89-2.15,18.91-1.22Zm-10.95,1.4l3.15,7.64-1.68.69-3.15-7.64,1.68-.69Z"/>
        <path class="cls-1" d="m199.83,76.1l.9,2.18-7.96,10.3-2.7,3.21.04.1c1.63-.8,3.43-1.73,5.17-2.44l8.59-3.54.83,2-16.59,6.84-.9-2.18,7.97-10.31,2.69-3.2-.04-.1c-1.63.8-3.34,1.69-5.07,2.4l-8.68,3.58-.83-2.01,16.59-6.84Z"/>
        <path class="cls-1" d="m199.76,98.71l6.16-7.82.96,2.33-3.31,4.01c-.59.73-1.13,1.37-1.88,2.28l.04.1c1.15.05,1.97.09,2.89.18l5.15.46.92,2.22-9.99-1.17-6.47,8.32-.96-2.33,3.46-4.27c.65-.78,1.29-1.57,2.08-2.52l-.04-.1c-1.21-.06-2.21-.14-3.21-.22l-5.45-.55-.92-2.22,10.56,1.3Z"/>
        <path class="cls-1" d="m211.91,105.43l.87,2.11-16.59,6.84-.87-2.11,16.59-6.84Z"/>
        <path class="cls-1" d="m206.02,114.51c5.31-2.19,9.74-.59,11.46,3.57,1.72,4.17-.31,8.42-5.62,10.61-5.31,2.19-9.87.64-11.58-3.52-1.72-4.17.42-8.47,5.74-10.66Zm4.95,12c4.13-1.7,5.88-4.7,4.66-7.67s-4.57-3.86-8.71-2.16c-4.13,1.7-6,4.75-4.78,7.71,1.22,2.96,4.69,3.81,8.83,2.11Z"/>
        <path class="cls-1" d="m211.8,132.81l9.74-4.01.87,2.11-9.8,4.04c-3.99,1.64-4.55,3.85-3.65,6.01.91,2.2,2.88,3.42,6.86,1.78l9.8-4.04.83,2.02-9.74,4.01c-5.32,2.19-8.21.38-9.61-3.01-1.4-3.39-.63-6.72,4.7-8.91Z"/>
        <path class="cls-1" d="m213.26,149.66l1.97.67c-.75,1.71-.88,3.7-.17,5.42.9,2.18,2.51,3.02,4.13,2.36,1.69-.7,1.74-2.12,1.78-3.97l.07-2.82c.02-1.82.45-4.12,2.89-5.12,2.54-1.04,5.31.39,6.56,3.41.81,1.97.68,4.07-.04,5.73l-1.82-.56c.54-1.41.64-2.87,0-4.41-.77-1.86-2.21-2.71-3.7-2.09-1.6.66-1.6,2.35-1.61,3.88l-.05,2.79c-.03,2.26-.56,4.23-3.03,5.25-2.62,1.08-5.61-.22-7.05-3.71-.96-2.33-.84-4.75.07-6.82Z"/>
      </g>
      <g>
        <path class="cls-1" d="m259.97,47.28l1.72,1.17c-1.17,1.44-1.84,3.33-1.61,5.18.28,2.34,1.62,3.58,3.35,3.37,1.82-.22,2.24-1.58,2.78-3.35l.82-2.69c.51-1.75,1.53-3.85,4.15-4.16,2.72-.33,5.02,1.8,5.41,5.04.26,2.11-.43,4.1-1.57,5.51l-1.6-1.03c.9-1.21,1.38-2.6,1.18-4.24-.24-2-1.41-3.2-3-3.01-1.72.21-2.17,1.84-2.59,3.31l-.79,2.67c-.64,2.17-1.67,3.93-4.32,4.25-2.81.34-5.34-1.71-5.8-5.46-.3-2.5.46-4.8,1.89-6.55Z"/>
        <path class="cls-1" d="m268.33,61.24c5.75-.69,9.66,2.27,10.21,6.79.26,2.16-.58,3.98-1.6,5.17l-1.63-1.06c.89-1.06,1.42-2.32,1.24-3.82-.41-3.37-3.44-5.27-7.87-4.74-4.48.54-7.03,3.02-6.62,6.4.21,1.7,1.1,2.9,2.5,3.89l-1.27,1.41c-1.8-1.21-2.95-2.84-3.23-5.15-.54-4.44,2.49-8.18,8.28-8.88Z"/>
        <path class="cls-1" d="m279.69,80.36l.31,2.56-17.09,8.18-.29-2.4,9.58-4.31c1.91-.88,3.8-1.69,5.79-2.51v-.11c-2.15-.3-4.16-.64-6.23-1.04l-10.33-1.94-.28-2.31,18.55,3.87Zm-10.93-1.58l.99,8.2-1.81.22-.99-8.2,1.81-.22Z"/>
        <path class="cls-1" d="m281.02,91.35l.67,5.58c.44,3.63-.55,6.39-4.26,6.84-3.56.43-5.59-1.97-6.03-5.6l-.4-3.31-7.53.91-.27-2.27,17.82-2.15Zm-9.04,6.3l1.39,1.63-8.67,6.56-.31-2.57,7.59-5.63Zm1.23-.03c.34,2.77,1.64,4.16,3.95,3.88,2.34-.28,2.99-1.91,2.66-4.68l-.36-2.99-6.61.8.36,2.99Z"/>
        <path class="cls-1" d="m282.89,106.8l1.24,10.27-1.92.23-.97-8-5.58.67.82,6.75-1.92.23-.82-6.75-6.48.78,1,8.27-1.92.23-1.27-10.54,17.82-2.15Z"/>
        <path class="cls-1" d="m284.62,121.1l.54,4.46c.66,5.48-2.17,8.8-7.83,9.48-5.66.68-9.33-1.85-9.98-7.23l-.55-4.56,17.82-2.15Zm-15.44,6.22c.5,4.16,3.36,5.93,7.87,5.38,4.5-.54,6.73-2.92,6.23-7.09l-.24-2.02-14.1,1.7.24,2.02Z"/>
      </g>
    </g>
  </g>
</svg>