<?xml version="1.0" encoding="UTF-8"?>
<svg id="Layer_2" data-name="Layer 2" xmlns="http://www.w3.org/2000/svg" viewBox="0 0 354.69 354.16">
  <defs>
    <style>
      .cls-1 {
        fill: #231f20;
      }

      .cls-2 {
        fill: #f37e45;
      }

      .cls-2, .cls-3 {
        stroke: #231f20;
        stroke-miterlimit: 10;
        stroke-width: 2px;
      }

      .cls-3 {
        fill: #f9c2a3;
      }
    </style>
  </defs>
  <g id="Layer_1-2" data-name="Layer 1">
    <g id="SURPRISE">
      <path class="cls-2" d="m2,177.08l152.26,87.86c7.85-13.49,23.72-44.91,23.71-87.91,0-43-15.89-74.42-23.74-87.9C103.49,118.44,52.74,147.76,2,177.08Z"/>
      <path class="cls-3" d="m341.63,85.99c-4.1-15.27-9.83-32.5-17.94-50.87-5.51-12.49-11.35-23.75-17.11-33.75-50.78,29.25-101.57,58.5-152.35,87.75,3.15,5.76,6.34,12.21,9.37,19.36,3.48,8.21,6.17,15.96,8.26,23.03,56.59-15.17,113.18-30.34,169.77-45.52Z"/>
      <path class="cls-3" d="m353.69,176.48c-.05-34.07-5.06-64.5-12.06-90.5-56.59,15.17-113.18,30.34-169.77,45.52,3.68,13.56,4.92,24.74,5.37,29.54.64,6.89.74,12.63.74,15.97l175.72-.54Z"/>
      <path class="cls-3" d="m177.97,177.02l175.72-.54c.05,34.48-4.98,65.26-12.05,91.52,0,0-169.63-45.81-169.63-45.81,3.48-12.99,5.96-28.17,5.96-45.17Z"/>
      <path class="cls-3" d="m172.01,222.19s169.63,45.81,169.63,45.81c-10.58,39.31-25.71,68.5-35.13,84.79l-152.26-87.86c4.75-8.16,12.43-22.87,17.76-42.74Z"/>
      <g>
        <path class="cls-1" d="m35.76,185.9l1.84-2.14c1.47,1.46,3.48,2.43,5.49,2.43,2.5,0,3.92-1.19,3.92-2.99,0-1.89-1.4-2.49-3.3-3.31l-2.87-1.25c-1.96-.83-4.14-2.35-4.14-5.35,0-3.19,2.8-5.6,6.66-5.6,2.41,0,4.65,1.02,6.17,2.57l-1.62,1.99c-1.28-1.15-2.72-1.84-4.55-1.84-2.12,0-3.51,1.03-3.51,2.7,0,1.79,1.67,2.46,3.32,3.14l2.84,1.21c2.4,1.02,4.18,2.49,4.18,5.5,0,3.28-2.71,5.95-7.16,5.95-2.82,0-5.4-1.13-7.27-3.02Z"/>
        <path class="cls-1" d="m53.95,179.82v-11.76s3.12,0,3.12,0v11.93c0,4.69,1.88,6.19,4.45,6.19,2.61,0,4.54-1.51,4.54-6.2v-11.93s2.99,0,2.99,0v11.76c0,6.65-3.07,9.09-7.53,9.09s-7.57-2.44-7.57-9.09Z"/>
        <path class="cls-1" d="m74.36,168.06h6.66c4.21,0,7.35,1.5,7.35,5.91,0,4.24-3.14,6.23-7.35,6.23h-3.54s0,8.33,0,8.33h-3.12s0-20.47,0-20.47Zm6.28,9.63c3,0,4.64-1.23,4.64-3.72,0-2.52-1.64-3.41-4.64-3.41h-3.16s0,7.13,0,7.13h3.16Zm-.22,1.67l2.33-1.76,6.32,10.93h-3.52s-5.14-9.17-5.14-9.17Z"/>
        <path class="cls-1" d="m92.48,168.06h6.15c4.57,0,7.8,1.56,7.8,6.17,0,4.44-3.23,6.48-7.67,6.48h-3.15s0,7.83,0,7.83h-3.12v-20.47Zm5.96,10.14c3.32,0,4.9-1.26,4.9-3.97,0-2.75-1.71-3.66-5.03-3.66h-2.71s0,7.63,0,7.63h2.84Z"/>
        <path class="cls-1" d="m110.42,168.05h6.66c4.21,0,7.35,1.5,7.35,5.91,0,4.24-3.14,6.23-7.35,6.23h-3.54v8.33s-3.12,0-3.12,0v-20.47Zm6.28,9.64c3,0,4.64-1.23,4.64-3.72,0-2.52-1.64-3.41-4.64-3.41h-3.16s0,7.13,0,7.13h3.16Zm-.22,1.67l2.33-1.76,6.32,10.93h-3.52l-5.14-9.17Z"/>
        <path class="cls-1" d="m128.55,168.05h3.12s0,20.47,0,20.47h-3.12s0-20.47,0-20.47Z"/>
        <path class="cls-1" d="m135.64,185.88l1.84-2.14c1.47,1.46,3.48,2.43,5.49,2.43,2.5,0,3.92-1.19,3.92-2.99,0-1.89-1.4-2.49-3.3-3.31l-2.87-1.25c-1.96-.83-4.14-2.35-4.14-5.35,0-3.19,2.8-5.6,6.66-5.6,2.41,0,4.65,1.02,6.17,2.57l-1.62,1.99c-1.28-1.15-2.72-1.84-4.55-1.84-2.12,0-3.51,1.03-3.51,2.7,0,1.79,1.67,2.46,3.32,3.14l2.84,1.21c2.4,1.02,4.18,2.49,4.18,5.5,0,3.28-2.71,5.95-7.16,5.95-2.82,0-5.4-1.13-7.27-3.02Z"/>
        <path class="cls-1" d="m153.92,168.04h12.06s0,2.63,0,2.63h-8.94s0,5.83,0,5.83h7.56s0,2.63,0,2.63h-7.56s0,6.75,0,6.75h9.26s0,2.63,0,2.63h-12.37s0-20.47,0-20.47Z"/>
      </g>
      <g>
        <path class="cls-1" d="m188.21,101.48c-2.31-5.31-.59-9.9,3.58-11.72,2-.87,3.99-.58,5.41.06l-.55,1.86c-1.27-.55-2.63-.7-4.02-.1-3.11,1.35-4.07,4.8-2.28,8.9,1.8,4.14,4.9,5.87,8.02,4.51,1.57-.68,2.47-1.89,3.01-3.51l1.72.81c-.64,2.08-1.88,3.64-4.01,4.57-4.1,1.78-8.55-.05-10.88-5.39Z"/>
        <path class="cls-1" d="m201.77,95.5c-2.29-5.27-.78-9.73,3.35-11.53,4.13-1.8,8.43.15,10.72,5.41,2.29,5.27.84,9.85-3.3,11.65-4.13,1.8-8.48-.26-10.77-5.53Zm11.9-5.18c-1.78-4.1-4.82-5.79-7.75-4.51-2.94,1.28-3.77,4.65-1.99,8.75,1.78,4.1,4.87,5.91,7.81,4.63,2.94-1.28,3.72-4.77,1.93-8.87Z"/>
        <path class="cls-1" d="m215.82,79.67l2.16-.94,10.46,7.75,3.26,2.63.1-.04c-.83-1.61-1.8-3.4-2.54-5.12l-3.71-8.52,1.99-.87,7.16,16.46-2.16.94-10.46-7.76-3.25-2.63-.1.04c.83,1.62,1.75,3.3,2.5,5.02l3.75,8.61-1.99.87-7.16-16.46Z"/>
        <path class="cls-1" d="m232.04,72.61l9.49-4.13.77,1.77-7.4,3.22,2.42,5.55,6.27-2.73.77,1.77-6.27,2.73,3.2,7.36-2.09.91-7.16-16.46Z"/>
        <path class="cls-1" d="m248.56,76.91l-4.2-9.66,2.09-.91,4.23,9.72c1.72,3.95,3.93,4.47,6.08,3.54,2.18-.95,3.36-2.94,1.64-6.9l-4.23-9.72,2.01-.87,4.2,9.66c2.3,5.28.54,8.21-2.82,9.67s-6.7.76-9-4.52Z"/>
        <path class="cls-1" d="m265.39,75.13l.63-1.98c1.72.71,3.72.81,5.43.06,2.16-.94,2.97-2.57,2.28-4.17-.73-1.68-2.16-1.7-4-1.7h-2.82c-1.82,0-4.12-.38-5.18-2.8-1.09-2.51.29-5.32,3.28-6.62,1.95-.85,4.06-.76,5.73-.07l-.53,1.83c-1.42-.51-2.89-.58-4.41.08-1.85.8-2.66,2.27-2.02,3.74.69,1.58,2.38,1.55,3.91,1.54h2.79c2.26-.02,4.24.47,5.3,2.92,1.13,2.6-.11,5.61-3.57,7.12-2.31,1-4.73.94-6.82.06Z"/>
        <path class="cls-1" d="m273.74,54.47l9.48-4.13.77,1.77-7.39,3.22,2.24,5.16,6.24-2.71.77,1.77-6.24,2.71,2.6,5.98,7.64-3.32.77,1.77-9.74,4.24-7.16-16.46Z"/>
        <path class="cls-1" d="m286.96,48.72l4.12-1.79c5.06-2.2,9.05-.44,11.33,4.79,2.28,5.23.89,9.47-4.07,11.63l-4.21,1.83-7.16-16.46Zm10.37,13.02c3.85-1.67,4.72-4.92,2.91-9.08-1.81-4.16-4.73-5.62-8.57-3.94l-1.87.81,5.67,13.02,1.87-.81Z"/>
      </g>
      <g>
        <path class="cls-1" d="m205.03,156.5l1.15-1.73c1.46,1.16,3.35,1.8,5.2,1.56,2.33-.31,3.57-1.65,3.34-3.38-.24-1.82-1.6-2.23-3.38-2.74l-2.7-.79c-1.75-.49-3.86-1.49-4.21-4.11-.36-2.72,1.75-5.03,4.98-5.46,2.11-.28,4.11.39,5.53,1.51l-1.01,1.61c-1.23-.89-2.61-1.35-4.26-1.14-2,.26-3.18,1.44-2.97,3.04.23,1.71,1.86,2.15,3.33,2.56l2.68.76c2.17.61,3.94,1.63,4.29,4.27.37,2.81-1.66,5.36-5.4,5.86-2.5.33-4.8-.4-6.57-1.82Z"/>
        <path class="cls-1" d="m222.17,140.45l-5.38.71-.25-1.92,13.03-1.72.25,1.92-5.38.71,2.09,15.88-2.26.3-2.09-15.88Z"/>
        <path class="cls-1" d="m235.31,136.76l2.55-.34,8.37,17-2.4.32-4.41-9.53c-.9-1.91-1.73-3.78-2.57-5.76h-.11c-.28,2.15-.59,4.17-.97,6.24l-1.83,10.35-2.3.3,3.67-18.59Zm-1.46,10.94l8.19-1.08.24,1.81-8.19,1.08-.24-1.81Z"/>
        <path class="cls-1" d="m246.29,135.31l5.57-.74c3.62-.48,6.4.48,6.89,4.19.47,3.55-1.91,5.61-5.53,6.09l-3.31.44.99,7.52-2.26.3-2.35-17.79Zm6.36,7.74c2.77-.37,4.14-1.69,3.84-3.99-.31-2.34-1.94-2.97-4.71-2.6l-2.98.39.87,6.6,2.98-.39Zm.04,1.23l1.62-1.41,6.66,8.6-2.57.34-5.71-7.53Z"/>
        <path class="cls-1" d="m265.3,134.76l-5.38.71-.25-1.92,13.03-1.72.25,1.92-5.38.71,2.09,15.88-2.26.3-2.09-15.88Z"/>
        <path class="cls-1" d="m275.87,131.41l2.26-.3,2.09,15.88,7.77-1.02.25,1.92-10.03,1.32-2.35-17.79Z"/>
        <path class="cls-1" d="m289.05,129.68l10.25-1.35.25,1.92-7.99,1.05.74,5.58,6.74-.89.25,1.92-6.74.89.85,6.47,8.26-1.09.25,1.92-10.53,1.39-2.35-17.79Z"/>
        <path class="cls-1" d="m303.33,127.79l4.45-.59c5.47-.72,8.82,2.07,9.57,7.72.75,5.65-1.75,9.35-7.12,10.06l-4.55.6-2.35-17.79Zm6.38,15.37c4.16-.55,5.89-3.43,5.3-7.93-.59-4.5-3-6.7-7.15-6.15l-2.02.27,1.86,14.08,2.02-.27Z"/>
      </g>
      <g>
        <path class="cls-1" d="m222.52,196.35l2.55.34,3.68,18.58-2.4-.32-1.8-10.34c-.38-2.07-.69-4.1-.99-6.23h-.11c-.82,1.98-1.65,3.85-2.55,5.75l-4.44,9.53-2.3-.3,8.36-17Zm-4.24,10.19l8.19,1.08-.24,1.81-8.19-1.08.24-1.81Z"/>
        <path class="cls-1" d="m233.5,197.79l2.73.36,2.16,9.96c.27,1.27.51,2.58.78,3.87h.11c.59-1.17,1.13-2.37,1.72-3.53l4.62-9.07,2.73.36-2.34,17.79-2.1-.28,1.29-9.8c.2-1.55.66-3.67.98-5.22h-.11s-1.95,3.86-1.95,3.86l-4.56,8.76-1.5-.2-2.16-9.65-.88-4.24h-.11c-.09,1.58-.2,3.74-.4,5.29l-1.29,9.8-2.05-.27,2.34-17.79Z"/>
        <path class="cls-1" d="m256.87,200.86l2.56.34,3.68,18.58-2.4-.32-1.8-10.35c-.38-2.07-.69-4.1-.99-6.23h-.11c-.82,1.98-1.65,3.85-2.55,5.75l-4.44,9.53-2.3-.3,8.36-17Zm-4.24,10.19l8.19,1.08-.24,1.81-8.19-1.08.24-1.81Z"/>
        <path class="cls-1" d="m264.36,218.58l11.28-13.3-8.53-1.12.25-1.92,11.33,1.49-.18,1.35-11.28,13.3,9.46,1.24-.25,1.92-12.26-1.61.18-1.35Z"/>
        <path class="cls-1" d="m282.25,204.2l10.26,1.35-.25,1.92-7.99-1.05-.73,5.58,6.74.89-.25,1.92-6.74-.89-.85,6.47,8.26,1.09-.25,1.92-10.53-1.38,2.34-17.79Z"/>
        <path class="cls-1" d="m296.54,206.07l4.45.58c5.47.72,7.99,4.28,7.24,9.94-.74,5.65-4.11,8.58-9.48,7.87l-4.55-.6,2.34-17.79Zm2.19,16.5c4.16.55,6.58-1.79,7.17-6.29.59-4.5-1.16-7.25-5.32-7.8l-2.02-.26-1.85,14.08,2.02.27Z"/>
      </g>
      <g>
        <path class="cls-1" d="m207.03,253.21l9.52,4.04-.75,1.78-7.42-3.15-2.2,5.18,6.26,2.66-.75,1.78-6.26-2.65-2.55,6.01,7.67,3.25-.75,1.78-9.78-4.15,7.01-16.52Z"/>
        <path class="cls-1" d="m219.85,268.07l-1.11-9.89,2.32.98.46,5.18c.1.93.16,1.76.27,2.95l.1.04c.86-.77,1.47-1.32,2.18-1.91l3.99-3.3,2.21.94-7.93,6.18,1.24,10.47-2.32-.98-.54-5.47c-.08-1.01-.18-2.02-.29-3.25l-.1-.04c-.91.8-1.67,1.45-2.44,2.1l-4.27,3.44-2.21-.94,8.43-6.49Z"/>
        <path class="cls-1" d="m228.32,272c2.26-5.33,6.78-7.25,10.97-5.47,2,.85,3.16,2.49,3.68,3.96l-1.73.88c-.47-1.3-1.3-2.39-2.69-2.98-3.12-1.32-6.28.35-8.03,4.47-1.76,4.15-.88,7.6,2.25,8.93,1.58.67,3.06.49,4.62-.23l.59,1.81c-1.95.96-3.93,1.15-6.08.24-4.11-1.75-5.85-6.24-3.57-11.6Z"/>
        <path class="cls-1" d="m247.16,270.23l2.1.89-7.01,16.52-2.1-.89,7.01-16.52Z"/>
        <path class="cls-1" d="m256.47,276.28l-5-2.12.75-1.78,12.1,5.13-.75,1.78-5-2.12-6.25,14.74-2.1-.89,6.25-14.74Z"/>
        <path class="cls-1" d="m267.27,278.76l9.52,4.04-.75,1.78-7.42-3.15-2.2,5.18,6.26,2.65-.75,1.78-6.26-2.66-2.55,6.01,7.67,3.25-.75,1.78-9.78-4.15,7.01-16.52Z"/>
        <path class="cls-1" d="m280.54,284.39l4.13,1.75c5.08,2.16,6.55,6.26,4.32,11.51-2.23,5.25-6.25,7.17-11.24,5.05l-4.23-1.79,7.01-16.52Zm-2.3,16.48c3.86,1.64,6.81.04,8.59-4.14,1.77-4.18.82-7.29-3.04-8.93l-1.87-.79-5.55,13.07,1.87.79Z"/>
      </g>
    </g>
  </g>
</svg>